<?xml version="1.0" encoding="UTF-8" standalone="no"?>
<svg
   xmlns:dc="http://purl.org/dc/elements/1.1/"
   xmlns:cc="http://creativecommons.org/ns#"
   xmlns:rdf="http://www.w3.org/1999/02/22-rdf-syntax-ns#"
   xmlns:svg="http://www.w3.org/2000/svg"
   xmlns="http://www.w3.org/2000/svg"
   xmlns:sodipodi="http://sodipodi.sourceforge.net/DTD/sodipodi-0.dtd"
   xmlns:inkscape="http://www.inkscape.org/namespaces/inkscape"
   sodipodi:docname="outpost_logo.svg"
   inkscape:version="1.0 (6e3e5246a0, 2020-05-07)"
   id="svg8"
   version="1.1"
   viewBox="0 0 124.06011 105.55759"
   height="105.55759mm"
   width="124.06011mm">
  <defs
     id="defs2" />
  <sodipodi:namedview
     inkscape:window-maximized="0"
     inkscape:window-y="27"
     inkscape:window-x="51"
     inkscape:window-height="1376"
     inkscape:window-width="1255"
     fit-margin-bottom="0"
     fit-margin-right="0"
     fit-margin-left="0"
     fit-margin-top="0"
     units="mm"
     showgrid="false"
     inkscape:document-rotation="0"
     inkscape:current-layer="layer1"
     inkscape:document-units="mm"
     inkscape:cy="32.514585"
     inkscape:cx="248.15623"
     inkscape:zoom="0.7"
     inkscape:pageshadow="2"
     inkscape:pageopacity="0.0"
     borderopacity="1.0"
     bordercolor="#666666"
     pagecolor="#ffffff"
     id="base" />
  <metadata
     id="metadata5">
    <rdf:RDF>
      <cc:Work
         rdf:about="">
        <dc:format>image/svg+xml</dc:format>
        <dc:type
           rdf:resource="http://purl.org/dc/dcmitype/StillImage" />
        <dc:title></dc:title>
      </cc:Work>
    </rdf:RDF>
  </metadata>
  <g
     transform="translate(-42.406993,-91.661703)"
     id="layer1"
     inkscape:groupmode="layer"
     inkscape:label="Layer 1">
    <path
       id="path92"
       d="M 96.65408,194.48527 C 96.65008,186.51463 94.79569,174.68754 92.0691,165.24 88.253584,152.01935 81.417298,139.9683 72.954997,131.54553 c -4.31957,-4.29939 -8.608008,-7.35723 -13.34115,-9.51282 -4.255005,-1.93784 -9.627422,-3.48067 -12.124778,-3.48197 -1.717834,-8.9e-4 -1.717834,-8.9e-4 -1.47976,3.79147 1.17693,18.7477 10.080208,38.22964 22.059754,48.27062 5.721321,4.79548 15.030734,8.80721 21.442697,9.24036 2.55764,0.17278 2.55764,0.17278 2.55764,1.89028 0,1.71749 0,1.71749 -2.12282,1.71749 -6.356185,0 -15.236459,-3.32431 -21.63952,-8.1007 -12.474324,-9.30527 -21.614557,-25.57509 -24.582638,-43.75763 -0.767618,-4.70244 -1.582543,-15.58738 -1.234825,-16.49352 0.17594,-0.45849 0.707882,-0.50877 3.377598,-0.31927 12.609219,0.89503 22.365091,6.12134 32.449285,17.38337 9.433383,10.53521 16.2874,24.94876 18.9086,39.76352 2.005907,11.33722 2.270377,13.37805 2.487787,19.19715 0.22735,6.08542 0.22735,6.08542 -1.415,6.08542 -1.642357,0 -1.642357,0 -1.643787,-2.73403 z m 6.0026,-2.27373 c 0.0113,-14.42791 4.07372,-36.81605 9.1734,-50.55474 5.64292,-15.20221 11.90286,-25.50558 21.1183,-34.75906 7.44759,-7.478328 13.52118,-11.320893 21.73907,-13.753624 3.6855,-1.091012 10.19823,-1.831698 11.5488,-1.313434 0.63738,0.244583 -0.14758,15.559378 -1.10731,21.603888 -2.28405,14.38542 -6.87011,27.69435 -13.43259,38.98195 -8.8695,15.2557 -24.79956,26.45833 -37.62357,26.45833 -3.18022,0 -3.15163,0.0211 -2.74278,-2.02315 0.20833,-1.04164 0.24169,-1.05543 3.08681,-1.27622 17.61978,-1.36735 35.2136,-19.85927 43.0442,-45.24144 3.1717,-10.28078 5.03657,-20.50187 5.46755,-29.96687 0.22556,-4.953527 0.22556,-4.953527 -2.94944,-4.539974 -7.49037,0.97564 -14.0738,4.147313 -21.1341,10.181674 -3.14797,2.69055 -9.18178,9.51759 -11.39561,12.89376 -1.08145,1.64924 -2.59678,3.95111 -3.3674,5.11528 -1.9822,2.99448 -5.83089,11.09877 -8.12533,17.10972 -6.27061,16.42775 -9.11429,31.87296 -9.87261,53.62222 -0.0799,2.29306 -0.0799,2.29306 -1.75564,2.40058 -1.6757,0.10753 -1.6757,0.10753 -1.67175,-4.93889 z"
       style="fill:#009688;fill-opacity:1;stroke-width:0.352778" />
  </g>
</svg>
