<?xml version="1.0" encoding="UTF-8" standalone="no"?>
<svg
   xmlns:dc="http://purl.org/dc/elements/1.1/"
   xmlns:cc="http://creativecommons.org/ns#"
   xmlns:rdf="http://www.w3.org/1999/02/22-rdf-syntax-ns#"
   xmlns:svg="http://www.w3.org/2000/svg"
   xmlns="http://www.w3.org/2000/svg"
   xmlns:sodipodi="http://sodipodi.sourceforge.net/DTD/sodipodi-0.dtd"
   xmlns:inkscape="http://www.inkscape.org/namespaces/inkscape"
   inkscape:version="1.0 (6e3e5246a0, 2020-05-07)"
   sodipodi:docname="logoText.svg"
   viewBox="0 0 805.88702 289.96936"
   height="289.96936"
   width="805.88702"
   id="svg901"
   version="1.1">
  <metadata
     id="metadata907">
    <rdf:RDF>
      <cc:Work
         rdf:about="">
        <dc:format>image/svg+xml</dc:format>
        <dc:type
           rdf:resource="http://purl.org/dc/dcmitype/StillImage" />
        <dc:title></dc:title>
      </cc:Work>
    </rdf:RDF>
  </metadata>
  <defs
     id="defs905" />
  <sodipodi:namedview
     inkscape:current-layer="g909"
     inkscape:window-maximized="1"
     inkscape:window-y="27"
     inkscape:window-x="51"
     inkscape:cy="174.20995"
     inkscape:cx="350.91563"
     inkscape:zoom="1.5341692"
     fit-margin-bottom="0"
     fit-margin-right="0"
     fit-margin-left="0"
     fit-margin-top="0"
     showgrid="false"
     id="namedview903"
     inkscape:window-height="1376"
     inkscape:window-width="2509"
     inkscape:pageshadow="2"
     inkscape:pageopacity="0"
     guidetolerance="10"
     gridtolerance="10"
     objecttolerance="10"
     borderopacity="1"
     bordercolor="#666666"
     pagecolor="#ffffff" />
  <g
     transform="translate(-37.388827,-25.05529)"
     id="g909"
     inkscape:label="Image"
     inkscape:groupmode="layer">
    <path
       id="path913"
       d="m 580.27875,266.02466 v -49 h 4 4 v 4.69617 4.69616 l 3.25,-3.13959 c 4.89454,-4.72825 11.2249,-7.2052 18.47976,-7.23078 11.72559,-0.0413 19.81465,5.26241 24.93927,16.35193 2.63025,5.69175 2.83097,7.01239 2.83097,18.62611 0,11.6748 -0.19091,12.91338 -2.89186,18.7618 -5.06568,10.96882 -13.17144,16.37556 -24.60814,16.41423 -7.66139,0.0259 -12.45762,-1.78779 -18.02228,-6.81512 l -3.97772,-3.59363 v 19.61636 19.61636 h -4 -4 z m 36.54137,12.12034 c 8.67198,-3.93914 12.91627,-13.02719 12.89922,-27.62034 -0.009,-7.95537 -0.36899,-9.7651 -3.09897,-15.59177 -4.01407,-8.56734 -7.60672,-11.20297 -15.99926,-11.73737 -8.27738,-0.52706 -14.33686,2.25725 -17.80994,8.18361 -6.77358,11.55823 -4.8994,36.57997 3.29497,43.99061 5.01861,4.53861 14.1412,5.76085 20.71398,2.77526 z m -436.89339,17.62966 c -0.34683,-2.8875 -0.63451,-8.18844 -0.63929,-11.77986 -0.0176,-13.21195 -3.52234,-35.96602 -8.8552,-57.49099 C 152.3585,153.55296 104.99332,100.54047 52.528737,94.542779 c -7.398639,-0.8458 -6.926941,-2.5984 -4.770193,17.723711 4.901924,46.1887 21.251481,83.57591 48.445114,110.78146 19.641722,19.65031 40.082912,29.88043 63.575092,31.81717 l 8,0.65954 0.3075,4.25 0.3075,4.25 -5.3075,-1.7e-4 c -6.90577,-2.2e-4 -18.99715,-2.34265 -28.41942,-5.5056 -30.97589,-10.39826 -58.553033,-37.30337 -76.124107,-74.26905 -11.69843,-24.61093 -18.121178,-49.9 -20.248063,-79.72518 -1.389118,-19.479511 -1.535111,-18.196801 2.132335,-18.735071 5.540326,-0.81314 21.358563,1.15699 30.455515,3.79318 9.815916,2.84454 22.951168,9.15113 33.75965,16.208911 11.56045,7.54881 30.81264,27.57645 40.59777,42.23298 9.40711,14.09032 20.94327,36.82671 26.41508,52.06095 9.54295,26.56879 16.59002,65.03566 16.61411,90.68905 l 0.01,10.25 h -3.86071 -3.86071 z m 15.35202,-3.99261 c 0,-20.91057 4.02252,-57.88314 9.01457,-82.85643 3.10269,-15.52154 10.6439,-41.71555 16.61499,-57.71128 5.37896,-14.40951 18.24072,-40.22502 26.17886,-52.544961 26.11932,-40.536982 58.39536,-65.550775 93.16786,-72.204673 8.57291,-1.640471 21.6122,-1.914909 22.50297,-0.473621 1.02617,1.660381 -1.45857,38.909992 -3.48263,52.209357 -7.34664,48.271968 -23.65832,89.942948 -47.75861,122.007558 -8.44356,11.23386 -22.86956,25.28027 -33.45096,32.57077 -15.65356,10.78518 -35.46499,18.3825 -51.60781,19.79066 l -8.17924,0.71348 v -4.48091 -4.48091 l 7.75,-0.62157 c 31.4102,-2.51917 62.98368,-24.42821 86.33745,-59.91009 22.47415,-34.14545 37.06754,-80.80348 40.88408,-130.714664 0.56566,-7.397442 1.02847,-14.775209 1.02847,-16.395037 v -2.945143 l -6.75,0.57377 c -13.5869,1.154927 -33.21768,9.213624 -48.18841,19.781992 -35.16806,24.826366 -64.49957,73.688842 -81.48277,135.739652 -7.22486,26.39715 -12.23096,60.78966 -13.38499,91.95638 l -0.69383,18.73828 -4.25,0.3075 -4.25,0.3075 z m 295,-5.39254 c -10.51434,-1.99435 -18.08915,-7.42769 -20.01395,-14.35579 -0.53619,-1.92998 -0.97741,-15.09656 -0.98047,-29.25906 l -0.006,-25.75 h 4 4 l 0.004,26.25 c 0.004,24.56493 0.13329,26.46249 2.02189,29.56018 2.70717,4.44028 7.5814,6.30093 16.50615,6.30093 5.48893,0 8.37116,-0.53111 11.4748,-2.11447 6.65497,-3.39524 6.99316,-5.0619 6.99316,-34.46452 v -25.53212 h 4 4 l -0.022,26.25 c -0.0196,23.41501 -0.22197,26.682 -1.8739,30.25 -2.25506,4.8707 -6.38658,8.8853 -11.22328,10.9057 -3.86354,1.61388 -14.74725,2.74322 -18.88086,1.95915 z m 183.85388,-0.73599 c -13.92419,-3.02252 -22.56285,-14.38773 -23.59869,-31.04695 -0.63577,-10.22489 1.51999,-19.22506 6.24725,-26.08191 5.95398,-8.63621 13.49372,-12.39026 24.99756,-12.44634 15.96354,-0.0778 27.03884,10.39945 29.80577,28.19634 1.27084,8.17404 -0.0194,18.06416 -3.25129,24.92247 -6.02852,12.79292 -20.03337,19.53167 -34.2006,16.45639 z m 18.93105,-8.86784 c 6.23143,-4.12376 9.53677,-11.79777 10.0403,-23.31054 0.79583,-18.19602 -5.48898,-28.74688 -18.40054,-30.89062 -8.88245,-1.47477 -18.32705,3.47554 -22.30376,11.69033 -6.31935,13.05403 -3.20991,35.37501 5.7788,41.48291 7.50183,5.09755 18.07559,5.53431 24.8852,1.02792 z m 45.46616,9.18035 c -2.8869,-0.50854 -6.9369,-1.73295 -9,-2.72092 -3.14225,-1.50475 -3.71783,-2.25624 -3.54618,-4.62996 0.28396,-3.92683 0.75144,-4.13485 5.03489,-2.24042 5.50129,2.43304 13.95617,3.75915 19.37995,3.03966 6.76135,-0.89693 10.53339,-3.49996 11.95693,-8.25131 2.42607,-8.09753 -0.98055,-12.50417 -12.88695,-16.66992 -13.10745,-4.58596 -19.86761,-8.21124 -22.12611,-11.86556 -5.73916,-9.28616 -2.29849,-19.25657 8.35752,-24.21846 6.20123,-2.88756 17.36597,-3.22676 25.64736,-0.7792 7.19611,2.1268 7.14659,2.0781 5.44941,5.3601 l -1.47477,2.85187 -4.77157,-1.507 c -7.35014,-2.32139 -18.06599,-2.19845 -22.26768,0.25547 -3.92253,2.29088 -6.59528,7.94187 -5.61104,11.8634 1.03474,4.12272 4.09771,6.08646 15.67421,10.04909 17.52069,5.99733 21.93294,10.16544 21.93294,20.71933 0,8.65191 -3.44146,13.99984 -11.05663,17.18165 -4.73229,1.97728 -14.25464,2.69617 -20.69228,1.56218 z M 397.0547,284.59697 c -10.80509,-3.09202 -18.81067,-10.20583 -24.13774,-21.44893 -3.04234,-6.42103 -3.14795,-7.10476 -3.45712,-22.38043 -0.37026,-18.2942 0.66808,-23.36592 6.56646,-32.07352 7.17432,-10.59126 17.09094,-16.1741 30.78582,-17.33174 18.28414,-1.54558 33.61757,6.08735 41.34203,20.57991 10.27879,19.285 7.18277,48.57867 -6.63709,62.79826 -2.41317,2.48298 -7.22971,5.79856 -11.01354,7.58145 -6.12384,2.88547 -7.70774,3.1891 -17.72477,3.39774 -6.92234,0.14418 -12.75119,-0.27201 -15.72405,-1.12274 z m 25.23943,-6.59638 c 5.7488,-1.5154 12.39361,-6.36821 15.83601,-11.56529 5.09374,-7.69014 6.63394,-14.17498 6.62898,-27.91064 -0.005,-14.78634 -2.50494,-23.08654 -9.19256,-30.52479 -12.60772,-14.02281 -39.78999,-12.88191 -50.86919,2.1351 -4.40005,5.96392 -6.5946,13.6007 -7.15245,24.88969 -0.77414,15.66565 2.29284,26.8724 9.64624,35.24746 7.26737,8.27708 21.30084,11.36676 35.10297,7.72847 z m 126.20101,6.51907 c -2.25776,-0.98099 -3.89107,-2.76513 -5.22803,-5.71086 -1.76253,-3.88334 -1.94649,-6.69314 -1.9664,-30.03414 l -0.022,-25.75 h -4.5 c -4.10318,0 -4.5,-0.21505 -4.5,-2.43873 0,-2.1237 0.58129,-2.52589 4.5,-3.11354 2.475,-0.37115 4.52824,-0.73622 4.56276,-0.81127 0.0345,-0.0751 0.59702,-3.51146 1.25,-7.63646 1.12357,-7.09777 1.33473,-7.51697 3.93724,-7.81642 l 2.75,-0.31642 v 8.06642 8.06642 h 10 10 v 3 3 h -10 -10 v 24.53212 c 0,28.48991 0.48874,30.90614 6.47886,32.02989 1.99687,0.37462 5.85603,0.38592 8.57591,0.0251 l 4.94523,-0.656 v 2.92746 c 0,1.74696 -0.63785,3.17222 -1.58179,3.53444 -2.96571,1.13805 -15.90893,0.53274 -19.20182,-0.89801 z m 247.28361,0.55097 c -1.1,-0.45499 -3.125,-2.03697 -4.5,-3.51552 l -2.5,-2.68828 -0.29456,-27.92108 -0.29455,-27.92109 h -5.025 c -4.63912,0 -5.00045,-0.17278 -4.70544,-2.25 0.25632,-1.80481 1.24347,-2.42858 4.98907,-3.15256 l 4.66952,-0.90257 0.65244,-6.09743 c 0.97286,-9.09199 1.28134,-9.75985 4.34436,-9.40558 2.60059,0.30079 2.67113,0.49305 2.95622,8.05814 l 0.29207,7.75 h 9.45793 9.45794 v 3 3 h -9.5 -9.5 v 26.42742 26.42742 l 2.75,2.18475 c 2.45212,1.94809 3.53532,2.11981 10,1.58533 l 7.25,-0.59941 v 2.87061 c 0,2.13161 -0.57924,3.02585 -2.25,3.47359 -3.25371,0.87196 -15.90166,0.6476 -18.25,-0.32374 z m 37.9372,-0.0799 c -5.18827,-1.91927 -5.81423,-7.87299 -1.18921,-11.31088 3.42763,-2.54784 7.43893,-1.47166 9.72108,2.60805 1.36385,2.43812 1.36723,3.02915 0.0309,5.41559 -1.6599,2.96435 -5.4757,4.42923 -8.5628,3.28724 z"
       style="fill:#009688;fill-opacity:1" />
  </g>
</svg>
